<?xml version="1.0" encoding="utf-8"?>
<!-- Generator: Adobe Illustrator 27.5.0, SVG Export Plug-In . SVG Version: 6.00 Build 0)  -->
<svg version="1.1" xmlns="http://www.w3.org/2000/svg" xmlns:xlink="http://www.w3.org/1999/xlink" x="0px" y="0px"
	 viewBox="0 0 500 500" style="enable-background:new 0 0 500 500;" xml:space="preserve">
<g id="BACKGROUND">
	<rect style="fill:#FFFFFF;" width="500" height="500"/>
</g>
<g id="OBJECTS">
	<g>
		<g>
			<g>
				<rect x="41.865" y="84.087" style="fill:#EDF0FF;" width="76.887" height="76.887"/>
			</g>
			<g>
				<rect x="125.929" y="84.087" style="fill:#EDF0FF;" width="76.887" height="76.887"/>
			</g>
			<g>
				<rect x="209.992" y="84.087" style="fill:#EDF0FF;" width="76.887" height="76.887"/>
			</g>
			<g>
				<rect x="294.056" y="84.087" style="fill:#EDF0FF;" width="76.887" height="76.887"/>
			</g>
			<g>
				<rect x="41.865" y="168.15" style="fill:#EDF0FF;" width="76.887" height="76.887"/>
			</g>
			<g>
				<rect x="125.929" y="168.15" style="fill:#EDF0FF;" width="76.887" height="76.887"/>
			</g>
			<g>
				<rect x="209.992" y="168.15" style="fill:#EDF0FF;" width="76.887" height="76.887"/>
			</g>
			<g>
				<rect x="294.056" y="168.15" style="fill:#EDF0FF;" width="76.887" height="76.887"/>
			</g>
			<g>
				<rect x="41.865" y="252.214" style="fill:#EDF0FF;" width="76.887" height="76.887"/>
			</g>
			<g>
				<rect x="125.929" y="252.214" style="fill:#EDF0FF;" width="76.887" height="76.887"/>
			</g>
			<g>
				<rect x="209.992" y="252.214" style="fill:#EDF0FF;" width="76.887" height="76.887"/>
			</g>
			<g>
				<rect x="294.056" y="252.214" style="fill:#EDF0FF;" width="76.887" height="76.887"/>
			</g>
			<g>
				<rect x="381.247" y="84.087" style="fill:#EDF0FF;" width="76.887" height="76.887"/>
			</g>
			<g>
				<rect x="381.247" y="168.15" style="fill:#EDF0FF;" width="76.887" height="76.887"/>
			</g>
			<g>
				<rect x="381.247" y="252.214" style="fill:#EDF0FF;" width="76.887" height="76.887"/>
			</g>
			<g>
				<path style="fill:#FFFFFF;" d="M79.487,147.164h-5.376v-29.422l-5.281,2.652v-7l10.164-6.043h0.493V147.164z"/>
			</g>
			<g>
				<path style="fill:#FFFFFF;" d="M170.497,147.164h-16.161v-6.016l7.444-13.453c1.834-3.591,2.752-6.443,2.752-8.559
					c0-1.713-0.217-3.017-0.652-3.91c-0.435-0.893-1.066-1.34-1.893-1.34c-0.817,0-1.479,0.598-1.988,1.791
					c-0.509,1.194-0.764,2.685-0.764,4.471h-5.376c0-2.442,0.355-4.698,1.066-6.768c0.71-2.068,1.696-3.687,2.959-4.854
					c1.262-1.166,2.672-1.75,4.231-1.75c2.503,0,4.43,0.994,5.782,2.98c1.352,1.987,2.028,4.84,2.028,8.559
					c0,1.568-0.169,3.095-0.509,4.58c-0.339,1.486-0.867,3.045-1.583,4.676c-0.716,1.632-1.869,3.814-3.46,6.549l-2.99,5.934h9.114
					V147.164z"/>
			</g>
			<g>
				<path style="fill:#FFFFFF;" d="M245.393,123.402h2.529c2.004,0,3.006-1.686,3.006-5.059c0-1.313-0.239-2.383-0.716-3.213
					c-0.478-0.829-1.151-1.244-2.021-1.244c-0.71,0-1.328,0.355-1.853,1.066c-0.525,0.711-0.787,1.596-0.787,2.652h-5.361
					c0-2.096,0.339-3.965,1.018-5.605s1.62-2.921,2.824-3.842c1.203-0.92,2.526-1.381,3.968-1.381c2.577,0,4.603,1.012,6.077,3.035
					c1.474,2.023,2.211,4.804,2.211,8.34c0,1.714-0.305,3.332-0.915,4.854c-0.61,1.522-1.498,2.758-2.665,3.705
					c1.23,0.766,2.195,1.928,2.895,3.486c0.7,1.559,1.05,3.486,1.05,5.783c0,3.555-0.795,6.398-2.386,8.531
					c-1.591,2.133-3.68,3.199-6.268,3.199c-1.516,0-2.924-0.497-4.223-1.49c-1.299-0.993-2.282-2.369-2.951-4.129
					c-0.668-1.759-1.002-3.76-1.002-6.002h5.393c0,1.222,0.286,2.279,0.859,3.172c0.572,0.894,1.278,1.34,2.115,1.34
					c0.944,0,1.697-0.451,2.259-1.354c0.562-0.902,0.843-2.055,0.843-3.459c0-2.005-0.292-3.427-0.875-4.266
					c-0.584-0.838-1.389-1.258-2.418-1.258h-2.608V123.402z"/>
			</g>
			<g>
				<path style="fill:#FFFFFF;" d="M334.382,127.285h2.354v7.109h-2.354v8.449h-5.361v-8.449h-8.955l-0.318-5.633l9.273-25.648
					v-0.082h5.361V127.285z M324.853,127.285h4.168v-12.25l-0.334,0.93L324.853,127.285z"/>
			</g>
			<g>
				<path style="fill:#FFFFFF;" d="M410.594,123.396l1.415-20.365h13.537v7.109h-9.178l-0.525,7.964
					c0.382-0.385,0.883-0.724,1.503-1.017c0.62-0.293,1.227-0.439,1.821-0.439c2.301,0,4.069,1.172,5.305,3.514
					c1.235,2.343,1.853,5.629,1.853,9.857c0,2.553-0.331,4.863-0.994,6.932c-0.663,2.069-1.593,3.66-2.792,4.771
					c-1.199,1.112-2.614,1.668-4.247,1.668c-1.453,0-2.815-0.515-4.088-1.544c-1.273-1.028-2.27-2.44-2.991-4.234
					c-0.721-1.794-1.076-3.82-1.065-6.079h5.376c0.053,1.455,0.323,2.61,0.811,3.466c0.488,0.855,1.129,1.282,1.925,1.282
					c1.803,0,2.704-2.292,2.704-6.877c0-4.238-1.103-6.357-3.309-6.357c-1.251,0-2.185,0.691-2.8,2.074L410.594,123.396z"/>
			</g>
			<g>
				<path style="fill:#FFFFFF;" d="M80.553,185.933v7.246h-0.239c-2.004,0-3.65,0.825-4.939,2.475
					c-1.289,1.65-2.081,3.942-2.378,6.877c1.209-2.041,2.736-3.063,4.581-3.063c2.004,0,3.6,1.258,4.788,3.773
					c1.188,2.516,1.782,5.816,1.782,9.898c0,2.534-0.348,4.858-1.042,6.973c-0.694,2.115-1.665,3.77-2.911,4.963
					c-1.246,1.194-2.627,1.791-4.144,1.791c-1.644,0-3.113-0.643-4.406-1.928c-1.294-1.285-2.301-3.121-3.022-5.51
					c-0.721-2.388-1.092-5.141-1.113-8.258v-3.691c0-4.102,0.511-7.788,1.535-11.061c1.023-3.271,2.484-5.838,4.382-7.697
					c1.898-1.859,4.003-2.789,6.315-2.789H80.553z M75.717,206.577c-0.711,0-1.304,0.281-1.781,0.844
					c-0.477,0.564-0.832,1.253-1.066,2.07v2.75c0,5.011,1.013,7.516,3.038,7.516c0.816,0,1.498-0.626,2.044-1.879
					c0.546-1.253,0.819-2.823,0.819-4.711c0-1.942-0.278-3.526-0.835-4.752C77.38,207.189,76.64,206.577,75.717,206.577z"/>
			</g>
			<g>
				<path style="fill:#FFFFFF;" d="M170.434,191.429l-8.653,34.891h-5.663l8.669-32.703h-11.039v-7.109h16.686V191.429z"/>
			</g>
			<g>
				<path style="fill:#FFFFFF;" d="M256.114,197.144c0,1.933-0.279,3.637-0.836,5.113c-0.557,1.477-1.323,2.662-2.298,3.555
					c1.102,0.93,1.977,2.201,2.624,3.815c0.647,1.613,0.97,3.523,0.97,5.729c0,3.555-0.713,6.362-2.139,8.422
					c-1.426,2.061-3.391,3.09-5.894,3.09c-2.513,0-4.496-1.034-5.949-3.104c-1.453-2.068-2.179-4.871-2.179-8.408
					c0-2.133,0.318-4.02,0.955-5.66c0.636-1.641,1.538-2.935,2.704-3.883c-0.986-0.892-1.76-2.078-2.322-3.555
					c-0.563-1.477-0.843-3.181-0.843-5.113c0-3.463,0.684-6.197,2.052-8.203c1.368-2.005,3.213-3.008,5.535-3.008
					c2.344,0,4.2,1.003,5.567,3.008C255.43,190.946,256.114,193.681,256.114,197.144z M251.199,214.616
					c0-1.641-0.247-2.902-0.739-3.787c-0.493-0.884-1.143-1.326-1.949-1.326c-0.806,0-1.458,0.442-1.957,1.326
					c-0.499,0.885-0.748,2.146-0.748,3.787c0,1.586,0.252,2.84,0.755,3.76c0.504,0.921,1.164,1.381,1.98,1.381
					c0.795,0,1.437-0.455,1.925-1.367C250.955,217.479,251.199,216.221,251.199,214.616z M248.494,193.042
					c-0.721,0-1.27,0.406-1.646,1.217c-0.376,0.811-0.565,1.938-0.565,3.377c0,1.422,0.191,2.57,0.573,3.445
					c0.382,0.875,0.944,1.313,1.686,1.313c0.732,0,1.281-0.438,1.646-1.313c0.366-0.875,0.549-2.023,0.549-3.445
					c0-1.422-0.188-2.543-0.565-3.363C249.796,193.452,249.237,193.042,248.494,193.042z"/>
			</g>
			<g>
				<path style="fill:#FFFFFF;" d="M242.943,314.166h-5.376v-29.422l-5.281,2.652v-7l10.164-6.043h0.493V314.166z"/>
				<path style="fill:#FFFFFF;" d="M254.826,290.404h2.529c2.004,0,3.006-1.685,3.006-5.059c0-1.313-0.239-2.383-0.716-3.213
					c-0.478-0.829-1.151-1.244-2.021-1.244c-0.71,0-1.328,0.355-1.853,1.066c-0.525,0.711-0.787,1.596-0.787,2.652h-5.361
					c0-2.096,0.339-3.965,1.018-5.605c0.679-1.641,1.62-2.921,2.824-3.842c1.203-0.92,2.526-1.381,3.968-1.381
					c2.577,0,4.603,1.012,6.077,3.035c1.474,2.023,2.211,4.804,2.211,8.34c0,1.714-0.305,3.332-0.915,4.854
					c-0.61,1.522-1.498,2.758-2.664,3.705c1.23,0.766,2.195,1.928,2.895,3.486c0.7,1.559,1.05,3.486,1.05,5.783
					c0,3.555-0.795,6.398-2.386,8.531c-1.591,2.133-3.68,3.199-6.268,3.199c-1.516,0-2.924-0.497-4.223-1.49
					c-1.299-0.993-2.282-2.369-2.951-4.129c-0.668-1.759-1.002-3.76-1.002-6.002h5.393c0,1.222,0.286,2.279,0.859,3.172
					c0.572,0.893,1.278,1.34,2.115,1.34c0.944,0,1.697-0.451,2.259-1.353c0.562-0.902,0.843-2.055,0.843-3.459
					c0-2.005-0.292-3.427-0.875-4.266c-0.583-0.838-1.389-1.258-2.418-1.258h-2.608V290.404z"/>
			</g>
			<g>
				<path style="fill:#FFFFFF;" d="M330.786,206.605c-1.156,1.787-2.45,2.68-3.881,2.68c-2.1,0-3.765-1.221-4.995-3.664
					c-1.23-2.442-1.845-5.705-1.845-9.789c0-2.552,0.344-4.922,1.034-7.109c0.69-2.188,1.657-3.919,2.903-5.195
					c1.246-1.275,2.622-1.914,4.128-1.914c1.527,0,2.908,0.661,4.144,1.982c1.235,1.322,2.198,3.191,2.887,5.605
					c0.689,2.416,1.045,5.2,1.066,8.354v3.527c0,4.393-0.501,8.203-1.503,11.43c-1.002,3.227-2.431,5.706-4.287,7.438
					c-1.856,1.732-4.02,2.598-6.49,2.598h-0.334v-7.383l1.018-0.027C328.321,214.826,330.373,211.982,330.786,206.605z
					 M328.353,202.64c1.166,0,2.004-0.865,2.513-2.598v-3.828c0-2.552-0.249-4.438-0.747-5.66c-0.499-1.221-1.172-1.832-2.02-1.832
					c-0.753,0-1.384,0.693-1.893,2.078c-0.509,1.386-0.764,3.063-0.764,5.031c0,2.078,0.26,3.732,0.78,4.963
					C326.741,202.024,327.452,202.64,328.353,202.64z"/>
			</g>
			<g>
				<path style="fill:#FFFFFF;" d="M412.725,221.999h-5.376v-29.422l-5.281,2.652v-7l10.164-6.043h0.493V221.999z"/>
				<path style="fill:#FFFFFF;" d="M435.789,205.73c0,5.378-0.703,9.525-2.108,12.441c-1.405,2.917-3.386,4.375-5.941,4.375
					c-2.577,0-4.571-1.467-5.981-4.402c-1.411-2.935-2.116-7.072-2.116-12.414v-7.273c0-5.377,0.702-9.524,2.108-12.441
					c1.405-2.916,3.391-4.375,5.957-4.375s4.555,1.468,5.965,4.402c1.41,2.936,2.115,7.082,2.115,12.441V205.73z M430.429,197.28
					c0-2.861-0.217-4.999-0.652-6.412c-0.435-1.412-1.124-2.119-2.068-2.119c-0.922,0-1.593,0.656-2.012,1.969
					c-0.419,1.313-0.644,3.3-0.676,5.961v10.172c0,2.972,0.217,5.145,0.652,6.521c0.435,1.377,1.124,2.064,2.068,2.064
					c0.912,0,1.585-0.67,2.02-2.01c0.435-1.34,0.657-3.441,0.668-6.303V197.28z"/>
			</g>
			<g>
				<path style="fill:#FFFFFF;" d="M70.054,315.31h-5.376v-29.422l-5.281,2.652v-7l10.164-6.043h0.493V315.31z"/>
				<path style="fill:#FFFFFF;" d="M88.92,315.31h-5.376v-29.422l-5.281,2.652v-7l10.164-6.043h0.493V315.31z"/>
			</g>
			<g>
				<path style="fill:#FFFFFF;" d="M156.786,315.31h-5.376v-29.422l-5.281,2.652v-7l10.164-6.043h0.493V315.31z"/>
				<path style="fill:#FFFFFF;" d="M179.93,315.31h-16.161v-6.016l7.444-13.453c1.835-3.591,2.752-6.443,2.752-8.559
					c0-1.713-0.217-3.017-0.652-3.91c-0.435-0.893-1.065-1.34-1.893-1.34c-0.817,0-1.479,0.598-1.988,1.791
					c-0.509,1.194-0.764,2.685-0.764,4.471h-5.377c0-2.442,0.355-4.698,1.066-6.768c0.71-2.068,1.696-3.686,2.958-4.853
					c1.262-1.166,2.672-1.75,4.231-1.75c2.503,0,4.43,0.994,5.782,2.98c1.352,1.987,2.028,4.84,2.028,8.559
					c0,1.568-0.169,3.095-0.509,4.58c-0.339,1.486-0.867,3.045-1.583,4.676c-0.716,1.632-1.869,3.814-3.46,6.549l-2.99,5.934h9.114
					V315.31z"/>
			</g>
			<g>
				<path style="fill:#FFFFFF;" d="M322.674,310.989h-5.376v-29.422l-5.281,2.652v-7l10.164-6.043h0.493V310.989z"/>
				<path style="fill:#FFFFFF;" d="M343.814,295.431h2.354v7.109h-2.354v8.449h-5.361v-8.449h-8.955l-0.318-5.633l9.273-25.648
					v-0.082h5.361V295.431z M334.286,295.431h4.168v-12.25l-0.334,0.93L334.286,295.431z"/>
			</g>
			<g>
				<path style="fill:#FFFFFF;" d="M412.725,310.989h-5.376v-29.422l-5.281,2.652v-7l10.164-6.043h0.493V310.989z"/>
				<path style="fill:#FFFFFF;" d="M420.026,291.542l1.415-20.365h13.537v7.109H425.8l-0.525,7.964
					c0.382-0.385,0.883-0.724,1.503-1.017c0.62-0.293,1.227-0.439,1.821-0.439c2.301,0,4.069,1.172,5.305,3.514
					c1.235,2.343,1.853,5.629,1.853,9.858c0,2.553-0.332,4.863-0.994,6.932c-0.663,2.069-1.593,3.66-2.792,4.771
					c-1.199,1.112-2.614,1.668-4.247,1.668c-1.453,0-2.815-0.515-4.088-1.544c-1.272-1.028-2.27-2.44-2.991-4.234
					c-0.721-1.794-1.076-3.82-1.065-6.079h5.376c0.053,1.455,0.323,2.61,0.811,3.466c0.488,0.854,1.129,1.282,1.925,1.282
					c1.803,0,2.704-2.292,2.704-6.877c0-4.238-1.103-6.357-3.309-6.357c-1.251,0-2.185,0.691-2.8,2.074L420.026,291.542z"/>
			</g>
		</g>
		<g>
			
				<line style="fill:none;stroke:#000000;stroke-width:0.5;stroke-miterlimit:10;" x1="190.379" y1="82.709" x2="176.615" y2="96.474"/>
			
				<line style="fill:none;stroke:#000000;stroke-width:0.5;stroke-miterlimit:10;" x1="179.985" y1="89.639" x2="170.551" y2="99.072"/>
		</g>
		<g>
			<g>
				<g>
					<g>
						<path style="fill:#D47172;stroke:#000000;stroke-width:0.5;stroke-miterlimit:10;" d="M307.583,412.592
							c-0.102-2.06,1.485-3.813,3.545-3.915c2.06-0.102,3.813,1.484,3.915,3.544c0.007,0.13-0.013,0.254-0.019,0.38
							c1.444-0.316,2.834-0.768,4.157-1.344c-0.087-0.107-0.182-0.206-0.259-0.324c-1.119-1.733-0.621-4.044,1.112-5.163
							c1.733-1.119,4.045-0.621,5.163,1.112c0.075,0.116,0.125,0.241,0.185,0.362c1.084-0.987,2.07-2.077,2.945-3.254
							c-0.139-0.052-0.279-0.093-0.414-0.162c-1.835-0.941-2.56-3.193-1.618-5.028c0.941-1.835,3.192-2.56,5.027-1.618
							c0.137,0.07,0.255,0.162,0.38,0.246c0.447-1.39,0.762-2.836,0.932-4.323c-0.161,0.029-0.32,0.065-0.488,0.074
							c-2.06,0.102-3.813-1.485-3.915-3.545c-0.102-2.06,1.485-3.813,3.545-3.915c0.172-0.009,0.338,0.011,0.504,0.026
							c-0.316-1.477-0.774-2.898-1.36-4.249c-0.137,0.121-0.273,0.242-0.431,0.345c-1.733,1.119-4.045,0.621-5.163-1.112
							c-1.119-1.733-0.621-4.045,1.112-5.163c0.159-0.102,0.327-0.177,0.494-0.253c-1.008-1.112-2.125-2.123-3.332-3.016
							c-0.061,0.186-0.124,0.373-0.217,0.553c-0.942,1.835-3.193,2.56-5.028,1.618c-1.835-0.941-2.56-3.193-1.618-5.027
							c0.092-0.179,0.206-0.338,0.321-0.496c-1.419-0.455-2.896-0.773-4.416-0.94c0.044,0.199,0.082,0.4,0.093,0.611
							c0.102,2.06-1.485,3.813-3.545,3.915c-2.06,0.102-3.813-1.484-3.915-3.545c-0.01-0.201,0.009-0.396,0.03-0.59
							c-1.493,0.326-2.928,0.798-4.291,1.4c0.135,0.149,0.269,0.303,0.382,0.478c1.119,1.733,0.621,4.045-1.112,5.163
							c-1.733,1.119-4.045,0.621-5.163-1.112c-0.105-0.163-0.182-0.335-0.259-0.507c-1.106,1.015-2.107,2.139-2.992,3.351
							c0.181,0.06,0.362,0.121,0.536,0.21c1.835,0.942,2.56,3.192,1.618,5.028c-0.941,1.835-3.192,2.56-5.027,1.618
							c-0.161-0.082-0.302-0.187-0.445-0.288c-0.44,1.405-0.746,2.868-0.904,4.371c0.173-0.033,0.344-0.07,0.525-0.079
							c2.06-0.102,3.813,1.485,3.915,3.545c0.102,2.06-1.485,3.813-3.545,3.915c-0.159,0.008-0.311-0.012-0.466-0.024
							c0.327,1.46,0.792,2.864,1.384,4.199c0.12-0.102,0.235-0.208,0.371-0.296c1.733-1.118,4.045-0.621,5.163,1.112
							c1.119,1.733,0.621,4.044-1.112,5.163c-0.12,0.077-0.248,0.128-0.372,0.19c0.993,1.077,2.089,2.056,3.271,2.923
							c0.05-0.133,0.089-0.268,0.156-0.398c0.941-1.835,3.192-2.56,5.028-1.618c1.835,0.941,2.56,3.192,1.618,5.027
							c-0.061,0.119-0.142,0.22-0.214,0.33c1.376,0.433,2.807,0.735,4.278,0.897C307.622,412.86,307.59,412.73,307.583,412.592z
							 M294.939,391.254c-0.417-8.395,6.051-15.539,14.446-15.956c8.395-0.417,15.539,6.051,15.956,14.446
							c0.417,8.395-6.051,15.539-14.446,15.956C302.5,406.117,295.356,399.649,294.939,391.254z"/>
					</g>
				</g>
				
					<circle style="fill:none;stroke:#000000;stroke-width:0.5;stroke-linecap:round;stroke-miterlimit:10;" cx="310.139" cy="390.499" r="12.934"/>
			</g>
			<path style="fill:#D47172;stroke:#000000;stroke-width:0.5;stroke-miterlimit:10;" d="M235.645,392.745
				c-0.182,0.009-0.357-0.014-0.534-0.027c0.374,1.671,0.907,3.278,1.584,4.806c0.138-0.116,0.269-0.239,0.424-0.339
				c1.984-1.281,4.63-0.711,5.91,1.273c1.281,1.984,0.71,4.63-1.273,5.91c-0.137,0.089-0.283,0.147-0.426,0.218
				c1.137,1.233,2.391,2.353,3.744,3.346c0.057-0.152,0.102-0.307,0.178-0.455c1.077-2.101,3.654-2.93,5.755-1.853
				c2.101,1.078,2.93,3.654,1.853,5.755c-0.07,0.136-0.162,0.252-0.244,0.377c1.575,0.495,3.213,0.841,4.896,1.027
				c-0.025-0.153-0.062-0.302-0.07-0.461c-0.117-2.358,1.699-4.364,4.057-4.482c2.358-0.117,4.365,1.699,4.482,4.057
				c0.008,0.148-0.014,0.29-0.022,0.435c1.653-0.362,3.245-0.879,4.758-1.538c-0.1-0.123-0.208-0.235-0.296-0.371
				c-1.281-1.984-0.711-4.63,1.273-5.91c1.984-1.28,4.63-0.71,5.91,1.273c0.086,0.133,0.142,0.276,0.212,0.414
				c1.241-1.129,2.37-2.377,3.371-3.724c-0.159-0.059-0.32-0.107-0.474-0.186c-2.101-1.078-2.93-3.654-1.853-5.755
				c1.078-2.101,3.654-2.93,5.755-1.853c0.157,0.081,0.292,0.185,0.435,0.281c0.512-1.591,0.872-3.246,1.067-4.948
				c-0.184,0.034-0.366,0.075-0.558,0.084c-2.358,0.117-4.365-1.699-4.482-4.057c-0.117-2.358,1.699-4.365,4.058-4.482
				c0.197-0.01,0.386,0.013,0.577,0.029c-0.361-1.691-0.886-3.317-1.557-4.864c-0.157,0.138-0.313,0.277-0.494,0.394
				c-1.984,1.28-4.63,0.71-5.91-1.273c-1.281-1.983-0.711-4.629,1.273-5.91c0.182-0.117,0.374-0.203,0.565-0.289
				c-1.154-1.273-2.432-2.43-3.814-3.452c-0.07,0.214-0.142,0.427-0.248,0.633c-1.078,2.101-3.654,2.93-5.755,1.852
				c-2.101-1.078-2.93-3.654-1.853-5.755c0.105-0.205,0.235-0.387,0.367-0.567c-1.624-0.521-3.315-0.885-5.055-1.075
				c0.05,0.228,0.094,0.458,0.106,0.699c0.117,2.358-1.7,4.364-4.058,4.482c-2.358,0.117-4.365-1.699-4.482-4.057
				c-0.011-0.231,0.01-0.454,0.034-0.676c-1.709,0.373-3.352,0.913-4.911,1.602c0.155,0.171,0.308,0.347,0.437,0.547
				c1.28,1.984,0.71,4.63-1.273,5.91c-1.983,1.281-4.629,0.71-5.91-1.273c-0.12-0.186-0.209-0.384-0.297-0.58
				c-1.266,1.162-2.412,2.448-3.425,3.836c0.207,0.069,0.414,0.138,0.614,0.241c2.101,1.078,2.93,3.654,1.852,5.755
				c-1.078,2.101-3.654,2.93-5.755,1.853c-0.184-0.094-0.345-0.214-0.51-0.33c-0.504,1.609-0.854,3.282-1.035,5.003
				c0.198-0.038,0.394-0.081,0.601-0.091c2.358-0.117,4.365,1.7,4.482,4.058C239.82,390.621,238.003,392.627,235.645,392.745z
				 M256.655,374.269c7.039-2.057,14.439,1.997,16.496,9.036c2.057,7.039-1.995,14.439-9.035,16.496
				c-7.039,2.057-14.439-1.996-16.497-9.035C245.563,383.727,249.616,376.326,256.655,374.269z"/>
		</g>
		<g>
			<path style="fill:#9CABFC;" d="M61.938,281.505v-1.982c7.761,0,14.053-6.292,14.053-14.053h2.229
				c0,7.761,6.292,14.053,14.053,14.053v1.982c-7.761,0-14.053,6.292-14.053,14.053h-2.229
				C75.991,287.797,69.699,281.505,61.938,281.505z"/>
			<path d="M68.227,280.514L68.227,280.514c4.904,0,8.879-3.975,8.879-8.878l0,0c0,4.903,3.975,8.878,8.878,8.878l0,0
				c-4.903,0-8.878,3.975-8.878,8.878l0,0C77.106,284.489,73.131,280.514,68.227,280.514z"/>
		</g>
		
			<rect x="325.426" y="73.625" style="fill:#D89CC7;stroke:#000000;stroke-width:0.5;stroke-miterlimit:10;" width="84.567" height="81.765"/>
		
			<rect x="192.015" y="112.878" style="fill:#95CFB6;stroke:#000000;stroke-width:0.5;stroke-miterlimit:10;" width="126.324" height="101.635"/>
		<g>
			
				<line style="fill:#95CFB6;stroke:#000000;stroke-width:0.5;stroke-miterlimit:10;" x1="220.957" y1="211.304" x2="249.872" y2="211.304"/>
			
				<line style="fill:none;stroke:#000000;stroke-width:0.5;stroke-miterlimit:10;" x1="255.076" y1="211.304" x2="264.128" y2="211.304"/>
		</g>
		
			<rect x="340.309" y="87.726" style="fill:#FFFFFF;stroke:#000000;stroke-width:0.5;stroke-miterlimit:10;" width="84.567" height="81.765"/>
		<g>
			
				<rect x="276.633" y="264.239" style="fill:#D1D8FF;stroke:#000000;stroke-width:0.5;stroke-miterlimit:10;" width="73.475" height="73.475"/>
			<g>
				<path style="fill:#9CABFC;" d="M316.971,307.566c-1.417,2.189-3.002,3.283-4.756,3.283c-2.573,0-4.613-1.496-6.121-4.49
					c-1.508-2.993-2.261-6.991-2.261-11.996c0-3.127,0.422-6.031,1.267-8.712c0.844-2.681,2.03-4.803,3.557-6.367
					c1.527-1.564,3.213-2.346,5.059-2.346c1.872,0,3.564,0.81,5.078,2.43c1.514,1.62,2.693,3.909,3.538,6.869
					c0.844,2.961,1.28,6.373,1.306,10.237v4.322c0,5.385-0.614,10.053-1.842,14.007c-1.228,3.954-2.979,6.993-5.253,9.115
					c-2.274,2.122-4.925,3.183-7.953,3.183h-0.41v-9.047l1.248-0.034C313.949,317.642,316.464,314.156,316.971,307.566z
					 M313.989,302.707c1.43,0,2.456-1.06,3.08-3.184v-4.69c0-3.128-0.306-5.439-0.917-6.936c-0.611-1.497-1.436-2.245-2.476-2.245
					c-0.923,0-1.696,0.849-2.319,2.547c-0.624,1.697-0.936,3.753-0.936,6.165c0,2.547,0.318,4.574,0.956,6.082
					C312.013,301.953,312.884,302.707,313.989,302.707z"/>
			</g>
			
				<line style="fill:none;stroke:#000000;stroke-width:0.5;stroke-miterlimit:10;" x1="280.514" y1="334.826" x2="290.988" y2="334.826"/>
			
				<line style="fill:none;stroke:#000000;stroke-width:0.5;stroke-miterlimit:10;" x1="294.862" y1="334.826" x2="298.787" y2="334.826"/>
		</g>
		<g>
			
				<rect x="258.085" y="184.338" style="fill:#D1D8FF;stroke:#000000;stroke-width:0.5;stroke-miterlimit:10;" width="73.475" height="73.475"/>
			
				<line style="fill:#D1D8FF;stroke:#000000;stroke-width:0.5;stroke-miterlimit:10;" x1="261.786" y1="231.951" x2="261.786" y2="246.41"/>
			<g>
				<path style="fill:#9CABFC;" d="M300.564,198.605v8.88h-0.292c-2.457,0-4.474,1.012-6.053,3.033s-2.551,4.831-2.914,8.427
					c1.481-2.501,3.353-3.753,5.614-3.753c2.456,0,4.412,1.542,5.868,4.625c1.455,3.082,2.183,7.126,2.183,12.13
					c0,3.105-0.426,5.953-1.277,8.545c-0.852,2.592-2.04,4.619-3.567,6.082c-1.527,1.463-3.22,2.194-5.078,2.194
					c-2.015,0-3.815-0.787-5.4-2.362c-1.586-1.575-2.82-3.825-3.704-6.752c-0.884-2.926-1.338-6.3-1.364-10.12v-4.523
					c0-5.026,0.626-9.544,1.881-13.555c1.254-4.009,3.044-7.153,5.37-9.433c2.326-2.278,4.906-3.418,7.739-3.418H300.564z
					 M294.638,223.904c-0.871,0-1.598,0.345-2.183,1.034c-0.585,0.69-1.021,1.535-1.306,2.536v3.37c0,6.141,1.241,9.211,3.723,9.211
					c1.001,0,1.835-0.768,2.505-2.303c0.669-1.535,1.004-3.459,1.004-5.773c0-2.38-0.341-4.321-1.023-5.823
					C296.675,224.655,295.769,223.904,294.638,223.904z"/>
			</g>
		</g>
		
			<rect x="177.752" y="104.437" style="fill:#D1D8FF;stroke:#000000;stroke-width:0.5;stroke-miterlimit:10;" width="73.475" height="73.475"/>
		
			<line style="fill:#D1D8FF;stroke:#000000;stroke-width:0.5;stroke-miterlimit:10;" x1="181.29" y1="138.206" x2="181.29" y2="147.783"/>
		
			<line style="fill:#D1D8FF;stroke:#000000;stroke-width:0.5;stroke-miterlimit:10;" x1="181.29" y1="151.523" x2="181.29" y2="152.829"/>
		<polyline style="fill:#D1D8FF;stroke:#000000;stroke-width:0.5;stroke-miterlimit:10;" points="181.029,119.2 181.029,109.223 
			190.183,109.223 		"/>
		
			<line style="fill:#D1D8FF;stroke:#000000;stroke-width:0.5;stroke-miterlimit:10;" x1="248.658" y1="162.49" x2="248.658" y2="171.402"/>
		
			<line style="fill:#D1D8FF;stroke:#000000;stroke-width:0.5;stroke-miterlimit:10;" x1="247.613" y1="133.245" x2="247.613" y2="140.079"/>
		<g>
			<path style="fill:none;stroke:#000000;stroke-width:0.5;stroke-miterlimit:10;" d="M219.72,439.272
				c70.71,0.312,142.618,0.312,213.981,0"/>
			<path style="fill:none;stroke:#000000;stroke-width:0.5;stroke-miterlimit:10;" d="M157.19,439.413
				c8.039-0.035,16.078-0.082,24.117-0.142"/>
			<path style="fill:none;stroke:#000000;stroke-width:0.5;stroke-miterlimit:10;" d="M63.441,439.272
				c27.883,0.29,55.705,0.29,83.549,0.18"/>
			
				<line style="fill:none;stroke:#000000;stroke-width:0.5;stroke-miterlimit:10;" x1="52.961" y1="434.418" x2="399.255" y2="434.418"/>
			
				<line style="fill:none;stroke:#000000;stroke-width:0.5;stroke-miterlimit:10;" x1="412.43" y1="434.418" x2="447.039" y2="434.418"/>
		</g>
		<g>
			<g>
				<path style="fill:#FFFFFF;stroke:#222221;stroke-width:0.5;stroke-miterlimit:10;" d="M154.789,424.802
					c0.096,0.287,0.202,0.589,0.449,0.808c0.278,0.245,0.68,0.34,1.06,0.421c3.286,0.704,6.605,1.257,9.936,1.653
					c-1.331-9.954-0.408-20.028-1.88-29.92c-0.389-2.612-0.962-5.249-2.316-7.565c-1.354-2.315-3.596-4.294-6.354-4.885
					c-2.758-0.591-5.99,0.486-7.263,2.841c-0.859,1.589-0.757,3.466-0.571,5.236C148.98,404.183,151.335,414.443,154.789,424.802z"
					/>
				<path style="fill:#161111;" d="M153.876,424.655c1.635,0.276,3.33,0.335,4.926,0.276c2.506-0.094,5.038-0.465,7.301-1.466
					c0.816,0.424,1.706,1.352,2.636,1.727c3.197,1.287,6.393,2.573,9.59,3.86c2.401,0.966,4.825,1.945,6.929,3.393
					c0.506,0.348,1.02,0.763,1.17,1.332c0.648,2.458-5.834,1.705-7.138,1.693c-3.491-0.033-6.945-0.349-10.432-0.389
					c-2.946-0.033-5.902,0.048-8.836-0.099c-1.747-0.087-4.526,0.656-5.821-0.62c-1.012-0.996-0.95-3.018-0.669-4.251
					C153.938,428.336,153.945,426.441,153.876,424.655z"/>
				<path style="fill:#FFFFFF;stroke:#222221;stroke-width:0.5;stroke-miterlimit:10;" d="M112.66,426.013
					c-0.036,0.284-0.079,0.583-0.282,0.796c-0.228,0.239-0.612,0.326-0.976,0.4c-3.152,0.643-6.368,1.133-9.63,1.469
					c-0.975,0.1-1.423-33.484-1.052-36.354c0.177-1.368,0.39-2.746,0.912-4.036c0.228-0.562,0.525-1.119,1.01-1.515
					c0.504-0.411,1.172-0.614,1.838-0.687c1.809-0.199,3.639,0.506,5.02,1.613c1.381,1.107,2.365,2.583,3.168,4.106
					c2.782,5.279,3.564,11.443,2.268,17.193C113.673,414.596,113.392,420.278,112.66,426.013z"/>
				<path style="fill:#D47172;stroke:#000000;stroke-width:0.5;stroke-miterlimit:10;" d="M102.564,264.977
					c1.674-3.899,4.733-3.905,8.566-4.22c5.032-0.413,10.069-0.811,15.118-0.92c3.044-0.066,6.135-0.031,9.062,0.809
					c2.559,0.734,4.906,2.061,7.15,3.491c2.637,1.681,4.361,3.345,4.831,6.429c0.476,3.119,1.704,6.2,2.276,9.336
					c1.187,6.504,1.662,13.104,2.555,19.649c1.683,12.33,3.431,24.652,5.245,36.966c3.447,23.398,7.206,54.091,11.127,77.425
					c-2.606,0.585-5.243,1.043-7.909,1.325c-4.634,0.488-9.288,0.366-13.908-0.136c-4.515-21.217-9.404-49.703-14.547-70.795
					c-2.573-10.552-4.73-20.873-7.389-30.888c-1.806,16.364-3.365,32.754-4.457,49.173c-0.556,8.37-0.993,16.747-1.276,25.129
					c-0.235,6.948-1.647,19.212-1.343,26.018c-5.312,0.878-22.403,0.719-22.456,0.174c-1.424-14.702-1.326-32.848-1.656-48.287
					c-0.248-11.607,0.995-25.875,0.656-37.254c-0.365-12.248-0.64-24.074,1.437-36.247
					C96.766,285.594,99.933,271.106,102.564,264.977z"/>
				<path style="fill:#161111;" d="M114.414,433.859c-0.005,0.033-0.011,0.066-0.016,0.099c-0.044,0.26-0.112,0.547-0.345,0.696
					c-0.164,0.105-0.374,0.116-0.572,0.124c-7.763,0.315-15.413,0.609-23.18,0.813c-1.758,0.046-9.17,0.06-9.657-2.282
					c-0.115-0.552,0.201-1.121,0.655-1.492c0.454-0.371,1.03-0.582,1.594-0.783c3.504-1.248,7.486-1.989,10.827-3.544
					c1.237-0.576,2.412-1.392,3.66-2.001c0.668-0.326,3.411-2.307,4.023-2.18c3.824,0.79,8.179,1.372,12.073,0.767
					C114.625,427.202,114.95,430.59,114.414,433.859z"/>
				<path style="fill:none;stroke:#131834;stroke-width:0.5;stroke-miterlimit:10;" d="M124.742,313.446
					c0.124-5.653,0.286-11.307,0.686-16.949"/>
				<path style="fill:#161111;" d="M124.564,313.406c0.507,0.101,0.997,0.28,1.451,0.528c0.295,0.161,0.592,0.376,0.691,0.698
					c0.045,0.145,0.044,0.3,0.049,0.452c0.019,0.585,0.126,1.168,0.317,1.721c0.535,1.551,2.55,2.287,2.792,4.025
					c0.136,0.976-0.411,1.998-0.088,2.93c0.218,0.63,0.784,1.062,1.19,1.59c0.895,1.165,0.977,2.796,0.572,4.208
					c-0.405,1.412-1.236,2.657-2.055,3.876c0.257-0.383-0.704-2.828-0.834-3.327c-0.325-1.244-0.665-2.485-1.018-3.721
					c-0.294-1.031-0.835-4.854-1.149-5.69c-0.381-1.013-0.475-2.228-0.81-3.255c-0.208-0.687-0.333-1.402-0.483-2.104
					C125.132,315.084,124.837,313.461,124.564,313.406z"/>
				<path style="fill:#161111;" d="M108.228,344.399c-0.767,1.724-1.114,3.889-1.385,5.644c-0.296,1.912-0.33,3.974,0.617,5.66
					c0.732,1.302,2.039,2.273,3.503,2.571c1.464,0.297,3.058-0.093,4.202-1.053c2.033-1.706,2.332-4.669,2.482-7.318
					c0.202-3.576,0.308-6.939-3.876-8.223C110.812,340.771,109.19,342.237,108.228,344.399z"/>
				<path style="fill:#161111;" d="M145.78,344.063c-0.48,1.825-0.474,4.018-0.459,5.793c0.016,1.934,0.313,3.975,1.52,5.487
					c0.932,1.168,2.378,1.916,3.871,1.974c1.493,0.058,3.003-0.584,3.978-1.716c1.732-2.011,1.55-4.983,1.272-7.622
					c-0.376-3.562-0.813-6.899-5.148-7.493C147.747,340.067,146.382,341.775,145.78,344.063z"/>
			</g>
			<path d="M140.036,191.485c-0.26-0.715-0.794-1.303-1.309-1.864c-2.213-2.411-5.616-3.189-8.76-2.571
				c-8.127,1.597-11.908,12.105-7.063,18.569c0.436,0.582,0.933,1.139,1.569,1.493c0.714,0.397,1.55,0.508,2.365,0.544
				c0.916,0.04,1.868-0.016,2.684-0.432c0.96-0.49,1.804-1.278,2.65-1.922c0.953-0.726,2.152-1.053,3.165-1.682
				c1.53-0.95,3.349-1.758,4.35-3.247C141.299,197.977,141.089,194.387,140.036,191.485z"/>
			<path style="fill:#FFFFFF;stroke:#222221;stroke-width:0.5;stroke-miterlimit:10;" d="M156.678,243.891
				c-6.886-2.116-14.752-7.17-15.464-15.114c-0.345-3.847,3.135-7.517,6.974-7.634c1.664-0.051,3.231,0.726,4.687,1.532
				c3.355,1.859,6.651,4.039,10.415,4.983c3.446,0.865,6.863,1.474,10.438,1.697c7.668,0.477,15.384-0.384,22.859-2.094
				c1.771-0.405,3.561-0.86,5.377-0.789c1.816,0.071,3.703,0.752,4.782,2.214c1.152,1.561,1.173,3.734,0.537,5.567
				c-0.569,1.639-0.56,2.135-2.092,3.029c-11.289,6.595-24.533,10.401-37.599,8.895
				C163.946,245.756,160.298,245.004,156.678,243.891z"/>
			<path style="fill:#522E97;" d="M132.992,213.586c-0.032,0.107-0.038,0.22-0.028,0.331c0.07-0.019,0.142-0.033,0.214-0.046
				L132.992,213.586z"/>
			
				<rect x="168.89" y="184.162" style="fill:#D1D8FF;stroke:#000000;stroke-width:0.5;stroke-miterlimit:10;" width="73.475" height="73.475"/>
			<path style="fill:#95CFB6;stroke:#000000;stroke-width:0.5;stroke-miterlimit:10;" d="M93.643,292.612
				c5.01-0.049,58.529-0.777,58.49-1.393c-0.566-8.875-2.291-17.269-3.027-26.132c-0.465-5.609-0.764-21.246-1.468-22.744
				c1.721,1.017,3.701,1.625,5.526,2.436c0.324,0.144,0.697-0.025,0.802-0.364c1.127-3.663,6.392-21.06,4.94-21.822
				c-0.764-0.401-1.503-0.859-2.243-1.299c-5.327-3.163-11.196-5.48-17.282-6.849c-5.56-1.25-12.048-2.733-17.747-2.503
				c-4.755,0.192-9.528,1.679-12.804,5.198c-3.886,4.173-5.352,9.836-6.751,15.283C99.491,242.502,95.064,284.126,93.643,292.612z"
				/>
			<path style="fill:#FFFFFF;stroke:#222221;stroke-width:0.5;stroke-miterlimit:10;" d="M134.284,211.09
				c0.018-0.335,0.043-0.667,0.082-0.992c0.059-0.5,0.146-1.028,0.486-1.409c0.363-0.406,0.937-0.563,1.441-0.799
				c1.739-0.813,2.379-2.605,2.882-4.27c0.563-1.865,0.716-3.874,0.493-5.813c-0.245-2.128-0.076-5.401-1.703-6.954
				c-1.356-1.294-4.227-0.882-6.094-0.401c-1.08,0.278-2.033,0.881-2.839,1.599c-0.939,0.837-2.305,2.22-2.654,3.428
				c-0.25,0.868-0.485,1.741-0.7,2.618c-0.555,2.257-0.151,4.64-0.411,6.951c-0.23,2.04-0.749,4.291-1.437,6.238
				c-0.136,0.385-0.443,0.705-0.822,0.856c0.581,1.182,1.162,2.363,1.743,3.545c0.851,1.73,2.029,3.901,3.823,4.796
				c1.8,0.897,3.567,0.015,4.515-1.517C134.517,216.657,134.144,213.743,134.284,211.09z"/>
			<path d="M139.234,187.078c-0.088-0.019-0.177-0.035-0.267-0.047c-0.639-0.088-1.287-0.013-1.927,0.071
				c-1.897,0.249-3.76,0.458-5.646,0.673c-1.485,0.17-3.063,0.162-4.35,0.923c-0.635,0.376-1.43,1.015-1.769,1.684
				c-0.35,0.691-0.675,1.337-1.193,1.938c-0.97,1.126-1.964,2.042-1.902,3.696c0.03,0.798,0.335,1.499,0.837,2.14
				c0.576,0.734,1.555,1.61,2.49,1.816c0.659,0.145,0.786-0.274,1.149-0.727c0.377-0.47,0.887-0.7,1.483-0.747
				c0.555-0.043,1.194-0.066,1.537-0.505c0.185-0.236,0.239-0.547,0.275-0.845c0.093-0.759,0.07-1.809,0.672-2.351
				c0.57-0.513,1.389-0.594,2.122-0.618c1.392-0.046,2.788,0.032,4.176-0.075c2.027-0.156,5.014-0.922,5.214-3.409
				c0.082-1.023-0.392-2.052-1.157-2.735C140.487,187.522,139.878,187.215,139.234,187.078z"/>
			<path style="fill:#FFFFFF;stroke:#222221;stroke-width:0.5;stroke-miterlimit:10;" d="M129.548,199.389
				c-0.042-2.845-3.587-3.439-4.988-1.169c-0.898,1.455-0.908,3.428,0.956,4.141c0.512,0.196,1.066,0.244,1.612,0.291"/>
			<path style="fill:#FFFFFF;stroke:#222221;stroke-width:0.5;stroke-miterlimit:10;" d="M137.951,201.854l-5.106,0.623
				C133.128,203.587,136.626,206.013,137.951,201.854z"/>
			<path d="M135.532,207.949c-1.031,0.066-2.039-0.074-3.041-0.292c0.306,0.513,0.521,1.059,0.829,1.561
				c0.346,0.565,0.801,1.033,0.98,1.669c0.051-0.419,0.099-0.837,0.191-1.25c0.078-0.351,0.183-0.707,0.406-0.995
				c0.311-0.401,0.814-0.624,1.316-0.776c0.017-0.005,0.034-0.011,0.051-0.016C136.022,207.892,135.78,207.933,135.532,207.949z"/>
			<path style="fill:#FFFFFF;stroke:#222221;stroke-width:0.5;stroke-miterlimit:10;" d="M177.321,197.577
				c-1.025-1.564-3.539-1.43-5.127-1.097c-2.223,0.467-4.398,1.74-6.194,3.09c-2.197,1.651-3.712,3.633-5.518,5.677
				c-2.911,3.295-5.823,6.59-8.734,9.885c-2.812,3.182-5.665,6.766-9.258,9.175c-2.489,1.669-5.58,2.727-8.623,2.277
				c-2.241-0.332-4.257-1.434-6.182-2.628c-0.681,2.041-1.625,3.992-2.518,5.948c-1.194,2.615-2.23,5.303-3.299,7.97
				c-0.461,1.151-0.916,2.305-1.374,3.457c0.202,0.068,0.405,0.138,0.607,0.204c6.864,2.255,14.374,4.068,21.214,1.741
				c3.534-1.202,6.631-3.442,9.382-5.965c6.524-5.982,10.597-13.586,14.065-21.633c0.85-1.973,1.539-4.311,2.706-6.116
				c0.958-1.483,2.57-2.57,4.026-3.51c1.444-0.933,2.94-1.861,4-3.215C177.52,201.526,178.333,199.12,177.321,197.577z"/>
			<path style="fill:#95CFB6;stroke:#000000;stroke-width:0.5;stroke-miterlimit:10;" d="M106.524,239.207
				c6.251,5.251,15.632,7.534,18.801,10.234c0.427,0.364,11.315-23.326,11.315-23.326s-8.83-4.716-9.688-5.288
				c-2.203-1.469-3.693-3.447-5.509-5.336"/>
			<path style="fill:#95CFB6;stroke:#000000;stroke-width:0.5;stroke-miterlimit:10;" d="M120.242,212.016
				c-6.835,0.14-14.313,2.494-16.947,9.4c-1.082,2.837-1.362,5.91-1.538,8.941c-0.168,2.877-0.252,5.758-0.252,8.639"/>
			<path style="fill:none;stroke:#222221;stroke-width:0.5;stroke-miterlimit:10;" d="M126.897,197.836
				c0.471,0.156,0.975,0.335,1.263,0.724c0.347,0.47,0.275,1.096,0.188,1.657"/>
			<path style="fill:none;stroke:#222221;stroke-width:0.5;stroke-miterlimit:10;" d="M138.658,242.53
				c2.237-0.412,4.412-1.152,6.437-2.189"/>
			<path style="fill:none;stroke:#222221;stroke-width:0.5;stroke-miterlimit:10;" d="M146.058,239.551
				c1.024-0.478,1.985-1.09,2.851-1.817"/>
			<path style="fill:none;stroke:#222221;stroke-width:0.5;stroke-miterlimit:10;" d="M165.527,242.531
				c0.796,0.166,1.607,0.255,2.42,0.265"/>
			<path style="fill:none;stroke:#222221;stroke-width:0.5;stroke-miterlimit:10;" d="M175.898,196.532
				c-2.412,0.692-4.569,2.052-6.676,3.415"/>
			<path style="fill:none;stroke:#222221;stroke-width:0.5;stroke-miterlimit:10;" d="M170.434,201.381
				c2.331-1.097,4.586-2.355,6.745-3.76"/>
			<path style="fill:none;stroke:#222221;stroke-width:0.5;stroke-miterlimit:10;" d="M177.783,199.406
				c-1.759,1.776-3.825,3.247-6.079,4.327"/>
			<path style="fill:none;stroke:#222221;stroke-width:0.5;stroke-miterlimit:10;" d="M100.974,258.497
				c-0.58,3.191-1.161,6.383-1.741,9.574"/>
			<path style="fill:none;stroke:#222221;stroke-width:0.5;stroke-miterlimit:10;" d="M98.691,272.419
				c-0.058,1.045-0.116,2.089-0.174,3.133"/>
			
				<line style="fill:#D1D8FF;stroke:#000000;stroke-width:0.5;stroke-miterlimit:10;" x1="173.196" y1="217.063" x2="173.196" y2="229.607"/>
			
				<line style="fill:#D1D8FF;stroke:#000000;stroke-width:0.5;stroke-miterlimit:10;" x1="173.457" y1="233.774" x2="173.457" y2="239.258"/>
			
				<line style="fill:#D1D8FF;stroke:#000000;stroke-width:0.5;stroke-miterlimit:10;" x1="223.199" y1="254.794" x2="238.614" y2="254.794"/>
			<g>
				<path style="fill:#9CABFC;" d="M196.569,221.916l1.735-24.957h16.588v8.712h-11.248l-0.643,9.76
					c0.468-0.472,1.081-0.887,1.842-1.245c0.76-0.359,1.504-0.539,2.232-0.539c2.82,0,4.987,1.436,6.501,4.306
					c1.514,2.871,2.271,6.897,2.271,12.08c0,3.128-0.406,5.959-1.218,8.494c-0.813,2.536-1.953,4.485-3.421,5.848
					c-1.469,1.363-3.204,2.044-5.205,2.044c-1.781,0-3.451-0.631-5.01-1.892c-1.559-1.261-2.781-2.99-3.665-5.189
					c-0.884-2.198-1.319-4.682-1.306-7.449h6.588c0.065,1.783,0.396,3.198,0.994,4.246c0.598,1.049,1.384,1.572,2.359,1.572
					c2.209,0,3.314-2.81,3.314-8.427c0-5.194-1.352-7.792-4.055-7.792c-1.534,0-2.677,0.848-3.431,2.542L196.569,221.916z"/>
			</g>
		</g>
		<g>
			<path style="fill:#FFFFFF;stroke:#222221;stroke-width:0.5;stroke-miterlimit:10;" d="M332.481,420.667
				c0.193,2.743,0.228,5.471-0.118,8.147c2.163-0.028,6.731-0.101,8.864-0.402c2.035-0.287,2.3-6.49,2.669-10.502
				c0.424-4.6,1.742-24.726,1.304-29.357c-0.3-3.167-2.506,8.605-5.372,7.291c-2.728-1.251-5.959,0.528-7.341,3.143
				c-1.382,2.615-0.62-1.843-0.465,1.177C332.238,404.399,332.179,416.368,332.481,420.667z"/>
			<path style="fill:#111314;" d="M344.061,433.442c0.687-0.871,0.254-2.774,0.114-3.757c-0.153-1.071-0.518-2.206-0.528-3.285
				c-0.007-0.733-0.013-1.467-0.02-2.201c-0.002-0.222-7.938-0.116-8.662-0.084c-1.118,0.049-2.706-0.181-3.491,0.688
				c-0.765,0.847-1.098,1.686-2.196,2.251c-0.931,0.479-1.97,0.72-2.998,0.957c-2.016,0.465-4.032,0.929-6.048,1.394
				c-1.369,0.315-2.774,0.646-3.914,1.444c-1.14,0.797-1.97,2.18-1.7,3.572c0.022,0.114,0.053,0.229,0.121,0.325
				c0.158,0.22,0.461,0.265,0.729,0.29c4.558,0.43,9.136,0.41,13.677,0.108c2.156-0.143,4.206-0.377,6.364-0.398
				c2.365-0.023,4.72-0.242,7.035-0.656c0.419-0.075,0.846-0.159,1.208-0.375C343.874,433.642,343.976,433.55,344.061,433.442z"/>
			<path style="fill:#5F76E8;stroke:#000000;stroke-width:0.5;stroke-miterlimit:10;" d="M331.728,412.12
				c-1.472-0.1-3.848-0.46-5.529-0.62c-0.346-0.033-0.605-0.344-0.587-0.693c0.198-3.858,0.108-14.489,0.156-21.942
				c0.026-4.059-1.368-50.831-1.466-59.193c-0.191-16.321,2.278-26.567,3.23-42.734c0.367-6.231-1.627-14.764,8.04-12.93
				c8.197,1.555,11.83,11.979,12.837,18.517c5.275,34.269,1.187,82.217,0.4,116.494c-0.008,0.337-0.155,3.816-0.404,4.025
				c-0.24,0.202-0.614,0.189-0.954,0.165C341.477,412.804,337.701,412.524,331.728,412.12z"/>
			<path style="fill:none;stroke:#000000;stroke-width:0.5;stroke-miterlimit:10;" d="M326.494,342.921
				c0.044,2.286,0.088,4.572,0.132,6.857"/>
			<path style="fill:none;stroke:#000000;stroke-width:0.5;stroke-miterlimit:10;" d="M326.374,336.687
				c0.02,1.039,0.04,2.078,0.06,3.117"/>
			<path style="fill:none;stroke:#000000;stroke-width:0.5;stroke-miterlimit:10;" d="M327.033,408.566
				c2.395,0.187,4.789,0.373,7.184,0.56"/>
			<g>
				<defs>
					<path id="SVGID_1_" d="M331.899,410.736c-1.472-0.1-3.848-0.46-5.529-0.62c-0.346-0.033-0.605-0.344-0.587-0.693
						c0.198-3.858-0.063-13.105-0.015-20.558c0.026-4.059-1.368-50.831-1.466-59.193c-0.191-16.321,2.278-26.567,3.23-42.734
						c0.367-6.231-1.627-14.764,8.04-12.93c8.197,1.555,11.83,11.979,12.837,18.517c5.275,34.269,1.233,83.941,0.446,118.218
						c-0.008,0.337-0.031,0.707-0.279,0.917c-0.24,0.202-0.614,0.189-0.954,0.165C341.648,411.42,337.871,411.14,331.899,410.736z"
						/>
				</defs>
				<clipPath id="SVGID_00000136381605476817191610000011304238378015878531_">
					<use xlink:href="#SVGID_1_"  style="overflow:visible;"/>
				</clipPath>
				<path style="clip-path:url(#SVGID_00000136381605476817191610000011304238378015878531_);" d="M329.766,357.069
					c2.583,2.746,1.786,7.478-1.242,10.04c-1.48,1.252-4.392,1.69-6.126,0.647c-1.26-0.758-1.792-2.318-1.957-3.78
					c-0.181-1.596-0.04-3.228,0.411-4.77c0.289-0.988,0.721-1.961,1.444-2.693c1.31-1.327,3.461-1.634,5.196-0.951
					C328.43,355.932,329.184,356.45,329.766,357.069z"/>
			</g>
			<path style="fill:#FFFFFF;stroke:#222221;stroke-width:0.5;stroke-miterlimit:10;" d="M381.054,417.924
				c0.837,2.62,1.518,5.262,1.815,7.943c2.094-0.54,6.516-1.693,8.516-2.491c1.909-0.761,0.696-6.85,0.105-10.835
				c-0.678-4.57-4.167-24.434-5.69-28.83c-1.042-3.006-0.396,8.954-3.491,8.356c-2.947-0.569-5.664,1.925-6.387,4.793
				c-0.723,2.868-1.039-1.644-0.173,1.254C376.963,402.176,379.742,413.818,381.054,417.924z"/>
			<path style="fill:#111314;" d="M395.331,427.591c0.46-1.009-0.41-2.755-0.779-3.677c-0.402-1.004-1.026-2.02-1.291-3.066
				c-0.18-0.711-0.36-1.422-0.541-2.133c-0.055-0.215-7.739,1.769-8.435,1.971c-1.074,0.313-2.672,0.466-3.228,1.495
				c-0.543,1.005-0.668,1.898-1.6,2.707c-0.791,0.686-1.744,1.166-2.686,1.64c-1.849,0.929-3.697,1.858-5.546,2.787
				c-1.255,0.631-2.542,1.285-3.46,2.33c-0.918,1.045-1.397,2.585-0.805,3.873c0.048,0.105,0.105,0.21,0.194,0.287
				c0.206,0.176,0.511,0.148,0.777,0.109c4.53-0.662,8.973-1.767,13.313-3.136c2.06-0.65,3.997-1.363,6.088-1.895
				c2.292-0.583,4.529-1.354,6.68-2.304c0.389-0.172,0.784-0.355,1.085-0.65C395.196,427.829,395.274,427.716,395.331,427.591z"/>
			<path style="fill:#5F76E8;stroke:#000000;stroke-width:0.5;stroke-miterlimit:10;" d="M351.391,284.338
				c3.288-3.721,8.597-6.641,13.698-6.256c5.361,0.404,6.753,7.813,7.742,12.257c2.033,9.13,2.43,18.505,3.377,27.782
				c1.911,18.731,7.459,37.112,11.144,55.505c1.932,9.643,4.926,24.746,7.036,34.352c0.072,0.329,0.138,0.695-0.054,0.957
				c-0.185,0.253-0.551,0.328-0.888,0.387c-5.898,1.023-9.633,1.646-15.532,2.668c-1.454,0.252-3.847,0.465-5.519,0.708
				c-0.344,0.05-0.669-0.191-0.735-0.535c-0.722-3.795-3.811-16.503-5.531-23.756c-2.799-11.803-6.331-23.469-9.519-35.171
				c-1.801-6.61-3.923-13.126-5.853-19.699c-0.978-3.331-1.908-6.677-2.723-10.052c-0.767-3.177-1.703-6.196-2.146-9.468"/>
			<g>
				<defs>
					<path id="SVGID_00000150796452147045075910000017581486132227389352_" d="M377.522,410.619
						c-1.453,0.252-3.848,0.465-5.519,0.708c-0.344,0.05-0.669-0.19-0.735-0.534c-0.722-3.795-3.42-15.133-5.14-22.385
						c-0.937-3.949-13.374-49.059-15.451-57.16c-4.054-15.811-4.082-26.35-6.988-42.282c-1.12-6.141-5.079-13.958,4.747-14.467
						c8.332-0.432,14.332,8.835,16.859,14.948c13.245,32.043,21.343,83.674,28.7,117.161c0.072,0.329,0.138,0.695-0.054,0.957
						c-0.185,0.253-0.551,0.329-0.888,0.387C387.156,408.974,383.421,409.597,377.522,410.619z"/>
				</defs>
				<clipPath id="SVGID_00000124863102217742281570000001110537599210895264_">
					<use xlink:href="#SVGID_00000150796452147045075910000017581486132227389352_"  style="overflow:visible;"/>
				</clipPath>
				<path style="clip-path:url(#SVGID_00000124863102217742281570000001110537599210895264_);" d="M361.57,354.904
					c0.181,0.111,0.354,0.234,0.515,0.368c1.587,1.323,2.255,3.487,2.298,5.552c0.019,0.909-0.068,1.83-0.375,2.685
					c-0.322,0.898-0.877,1.699-1.536,2.388c-3.961,4.138-7.035-2.942-7.26-6.214c-0.122-1.764,0.429-4.135,2.12-5.034
					C358.635,353.957,360.318,354.141,361.57,354.904z"/>
			</g>
			
				<rect x="303.833" y="122.813" style="fill:#D1D8FF;stroke:#000000;stroke-width:0.5;stroke-miterlimit:10;" width="73.475" height="73.475"/>
			<g>
				<path style="fill:#9CABFC;" d="M350.289,184.946h-19.805v-7.372l9.122-16.486c2.249-4.4,3.373-7.896,3.373-10.488
					c0-2.1-0.267-3.697-0.799-4.792c-0.533-1.094-1.306-1.642-2.32-1.642c-1,0-1.813,0.732-2.437,2.194
					c-0.624,1.464-0.936,3.29-0.936,5.479h-6.589c0-2.993,0.436-5.758,1.306-8.293c0.871-2.535,2.079-4.518,3.626-5.948
					c1.546-1.429,3.274-2.145,5.185-2.145c3.067,0,5.429,1.218,7.086,3.652c1.657,2.436,2.485,5.932,2.485,10.488
					c0,1.922-0.208,3.793-0.624,5.613c-0.416,1.821-1.063,3.732-1.939,5.73c-0.877,1.999-2.29,4.674-4.24,8.025l-3.665,7.271h11.17
					V184.946z"/>
			</g>
			
				<line style="fill:#D1D8FF;stroke:#000000;stroke-width:0.5;stroke-miterlimit:10;" x1="308.192" y1="134.812" x2="308.192" y2="154.423"/>
			
				<line style="fill:#D1D8FF;stroke:#000000;stroke-width:0.5;stroke-miterlimit:10;" x1="307.931" y1="160.923" x2="307.931" y2="170.066"/>
			<path style="fill:#D1D8FF;stroke:#000000;stroke-width:0.5;stroke-miterlimit:10;" d="M349.942,192.716c2.795,0,5.591,0,8.386,0"
				/>
			<g>
				<path style="fill:#FFFFFF;stroke:#222221;stroke-width:0.5;stroke-miterlimit:10;" d="M362.661,195.286
					c-0.048-0.399-0.248-0.842-0.325-1.111c-0.169-0.594-0.353-1.183-0.539-1.771c-0.292-0.92-0.69-1.859-0.871-2.81
					c-0.343-1.804-0.16-3.773,2.154-3.781c3.483-0.012,6.368,6.585,6.395,9.522c0.007,0.742-0.106,1.5,0.044,2.218
					c0.116,0.553,0.381,1.053,0.643,1.546c0.528,0.992,1.057,1.983,1.585,2.975c0.302,0.566,1.318,1.813,1.213,2.476
					c-0.219,1.388-3.013,2.281-4.104,2.346c-0.348,0.021-0.709,0.003-1.007-0.159c-0.307-0.167-0.514-0.466-0.7-0.763
					c-0.776-1.24-1.356-2.586-1.98-3.906c-0.526-1.114-1.017-2.377-2.061-3.109c-0.318-0.223-0.637-0.446-0.955-0.669
					c-0.748-0.524-1.525-1.081-1.936-1.896c-0.018-0.036-0.036-0.073-0.039-0.112c-0.015-0.188,0.249-0.244,0.436-0.231
					c0.355,0.026,0.709,0.052,1.064,0.077c0.226,0.016,0.464,0.03,0.665-0.073C362.642,195.9,362.7,195.607,362.661,195.286z"/>
				<path style="fill:#FFFFFF;stroke:#222221;stroke-width:0.5;stroke-miterlimit:10;" d="M361.308,186.546
					c-0.018,0.497,0.133,0.974,0.285,1.438c0.55,1.691,1.299,2.976,1.871,4.658"/>
				<path style="fill:#FFFFFF;stroke:#222221;stroke-width:0.5;stroke-miterlimit:10;" d="M362.75,185.686
					c0.819,2.054,1.637,4.108,2.456,6.162"/>
				<path style="fill:#FFFFFF;stroke:#222221;stroke-width:0.5;stroke-miterlimit:10;" d="M364.317,186.058
					c1.085,1.663,1.974,3.46,2.646,5.346"/>
			</g>
			<g>
				<path style="fill:#FFFFFF;stroke:#222221;stroke-width:0.5;stroke-miterlimit:10;" d="M316.953,195.449
					c0.005-0.445,0.17-0.956,0.221-1.262c0.113-0.673,0.243-1.344,0.376-2.014c0.209-1.048,0.531-2.128,0.614-3.196
					c0.156-2.026-0.285-4.169-2.831-3.895c-3.832,0.412-6.198,8.02-5.868,11.253c0.083,0.816,0.3,1.636,0.223,2.445
					c-0.06,0.622-0.29,1.205-0.518,1.779c-0.46,1.155-0.92,2.31-1.379,3.465c-0.263,0.66-1.228,2.155-1.032,2.871
					c0.41,1.499,3.592,2.139,4.8,2.078c0.385-0.02,0.779-0.083,1.088-0.298c0.318-0.221,0.508-0.576,0.676-0.925
					c0.701-1.459,1.176-3.01,1.699-4.538c0.411-1.197,0.774-2.535,1.636-3.499c0.533-0.597,1.252-0.973,1.871-1.467
					c0.31-0.247,0.546-0.561,0.845-0.814c0.274-0.232,1.042-0.785,0.516-1.127c-0.164-0.107-0.37-0.119-0.565-0.12
					C318.619,196.18,316.942,196.541,316.953,195.449z"/>
				<path style="fill:#FFFFFF;stroke:#222221;stroke-width:0.5;stroke-miterlimit:10;" d="M317.372,185.671
					c0.081,0.545-0.028,1.087-0.137,1.617c-0.399,1.926-1.065,3.431-1.488,5.351"/>
				<path style="fill:#FFFFFF;stroke:#222221;stroke-width:0.5;stroke-miterlimit:10;" d="M315.681,184.902
					c-0.649,2.359-1.662,4.992-2.311,7.351"/>
				<path style="fill:#FFFFFF;stroke:#222221;stroke-width:0.5;stroke-miterlimit:10;" d="M314.004,185.504
					c-0.989,1.962-1.748,4.047-2.256,6.202"/>
			</g>
			<path style="fill:#D47172;stroke:#000000;stroke-width:0.5;stroke-miterlimit:10;" d="M379.258,206.413
				c-1.774-3.27-3.981-5.652-6.673-8.168c-0.351-0.328-0.715-0.664-1.164-0.833c-0.972-0.365-2.037,0.135-2.939,0.65
				c-1.993,1.137-3.965,2.462-5.223,4.38c-0.399,0.608-0.725,1.291-0.757,2.017c-0.069,1.574,1.138,3.078,1.801,4.421
				c0.837,1.695,1.681,3.348,2.684,4.954c1.533,2.456,3.474,4.638,5.109,7.027c1.187,1.734,3.532,3.796,2.589,6.086
				c-0.425,1.033-1.366,1.75-2.288,2.381c-3.962,2.711-9.334,6.246-14.186,6.799c-2.552,0.291-4.775-0.946-7.317-0.901
				c-1.615,0.029-3.195,0.391-4.782,0.655c-1.491,0.248-2.988,0.131-4.461,0.339c-3.14,0.443-6.686-0.145-9.708-1.058
				c-4.042-1.222-7.836-3.408-11.622-5.246c-1.19-0.578-2.445-1.215-3.121-2.351c-0.742-1.247-0.617-2.805-0.468-4.249
				c0.394-3.832,0.788-7.663,1.181-11.495c0.385-3.755-0.309-6.834-1.474-10.439c-0.055-0.169-0.116-0.348-0.253-0.461
				c-0.118-0.099-0.276-0.134-0.426-0.166c-1.54-0.328-3.079-0.656-4.619-0.983c-1.267-0.269-2.43-0.32-3.495,0.585
				c-0.646,0.548-1.04,1.33-1.392,2.101c-2.978,6.51-3.244,13.145-3.701,20.176c-0.179,2.754-0.791,5.73-0.633,8.447
				c0.178,3.048,1.071,6.142,3.052,8.464c1.363,1.597,3.161,2.749,4.931,3.877c2.906,1.852,5.72,3.883,8.798,5.453
				c0.856,0.437,1.864,0.872,2.489,1.634c0.625,0.762,0.777,1.818,0.831,2.775c0.178,3.156,0.552,43.23,0.706,49.109
				c3.651,0.66,7.391,0.914,11.099,1.047c2.058,0.074,4.123,0.134,6.189,0.168c1.429,0.009,2.859,0.019,4.288,0.018
				c0.983-0.009,1.965-0.023,2.945-0.055c4.629-0.148,9.246-0.563,13.844-1.096c4.457-0.516,8.922-0.952,13.381-1.458
				c0.597-0.068,1.195-0.14,1.792-0.215c0.16-0.009-2.854-44.401-3.079-47.743c7.035-5.199,18.124-11.576,19.088-19.921
				C393.301,224.218,383.431,214.104,379.258,206.413z"/>
			<path style="fill:#FFFFFF;stroke:#222221;stroke-width:0.5;stroke-miterlimit:10;" d="M336.049,223.608
				c0.29,0.322,0.636,0.592,1.052,0.788c0.839,0.397,1.014,0.849,1.1,1.723c0.206,2.098,0.029,4.14-0.064,6.234
				c-0.032,0.712-0.174,1.353-0.525,1.995c-0.355,0.65-1.011,1.124-1.732,1.383c-0.142,0.051-0.291,0.085-0.438,0.124
				c0.861,1.365,1.864,2.585,3.45,3.275c5.032,2.189,11.324,0.549,14.56-3.533c-2.624-1.057-3.746-2.788-4.175-5.408
				c-0.581-3.543-0.413-7.355-0.387-10.941c0.009-1.33-0.148-2.47-0.492-3.746c-0.108-0.403-0.91-4.467-1.084-4.467
				c-0.135-0.555-0.273-1.118-0.55-1.617c-0.525-0.946-1.509-1.572-2.546-1.88c-1.037-0.308-2.135-0.334-3.217-0.329
				c-1.63,0.008-3.371,0.121-4.677,1.097c-0.99,0.74-1.484,0.393-1.792,1.59c-0.696,2.706-0.337,7.228,0.076,9.948
				C334.81,221.173,335.168,222.63,336.049,223.608z"/>
			<path d="M341.488,213.044c0.547,0.012,1.091,0.042,1.633,0.104c0.324,0.037,0.662,0.092,0.925,0.3
				c0.847,0.67,0.695,2.405,0.885,3.406c0.255,1.34,0.76,2.708,1.418,3.871c0.666,1.177,2.761,3.439,3.351,0.976
				c0.879-3.669,1.98-7.501,0.511-11.165c-0.546-1.361-1.418-2.558-2.501-3.404c-0.489-0.382-1.077-0.79-1.625-1.045
				c-0.659-0.306-1.443-0.173-2.13-0.444c-0.622-0.246-1.193-0.676-1.844-0.786c-0.774-0.131-1.546,0.209-2.327,0.273
				c-1.236,0.101-2.441-0.49-3.68-0.509c-1.019-0.016-2.04,0.371-2.848,1.079c-0.283,0.248-0.545,0.541-0.702,0.906
				c-0.191,0.445-0.361,1.314-0.171,1.781c0.134,0.329,0.454,0.54,0.537,0.891c0.05,0.214,0.001,0.439-0.021,0.659
				c-0.165,1.684,1.37,2.818,2.669,3.033C337.512,213.291,339.532,213.002,341.488,213.044z"/>
			<path style="fill:#D7AA95;" d="M367.703,318.576c-0.012-0.098-0.024-0.196-0.035-0.294"/>
			<path d="M340.381,224.761c-0.137,0.021-0.274,0.027-0.409-0.005c-0.276-0.067-0.501-0.29-0.783-0.326
				c-0.149-0.019-0.298,0.017-0.448,0.027c-0.493,0.031-0.958-0.225-1.449-0.272c-0.079-0.008-0.172-0.004-0.219,0.06
				c-0.093,0.127,0.306,0.231,0.38,0.278c0.175,0.11,0.314,0.28,0.413,0.459c0.189,0.342,0.229,0.754,0.267,1.137
				c0.071,0.704,0.125,1.409,0.164,2.115c0.181-0.329,0.358-0.636,0.59-0.938c0.298-0.389,0.588-0.776,1.096-0.873
				c0.275-0.052,0.561-0.051,0.827-0.139c0.434-0.143,0.777-0.534,0.861-0.984c0.018-0.096,0.025-0.196-0.003-0.29
				c-0.089-0.297-0.472-0.387-0.779-0.345C340.72,224.688,340.55,224.735,340.381,224.761z"/>
			<path style="fill:#FFFFFF;stroke:#222221;stroke-width:0.5;stroke-miterlimit:10;" d="M343.814,216.384
				c0.37-0.563,1.059-0.944,1.779-0.982c1.949-0.104,3.118,2.34,1.704,3.782c-0.5,0.51-1.28,0.588-1.993,0.636"/>
			<path style="fill:none;stroke:#222221;stroke-width:0.5;stroke-miterlimit:10;" d="M335.856,220.019
				c0.053,0.941,0.805,1.752,1.679,1.81c0.874,0.058,1.766-0.643,1.991-1.565L335.856,220.019z"/>
			<path style="fill:#FFFFFF;stroke:#222221;stroke-width:0.5;stroke-miterlimit:10;" d="M365.376,192.221"/>
			<path style="fill:#FFFFFF;stroke:#222221;stroke-width:0.5;stroke-miterlimit:10;" d="M363.282,186.077"/>
			<path style="fill:#FFFFFF;stroke:#222221;stroke-width:0.5;stroke-miterlimit:10;" d="M346.107,216.679
				c-0.797-0.004-1.545,0.647-1.652,1.437"/>
			<path style="fill:none;stroke:#000000;stroke-width:0.5;stroke-miterlimit:10;" d="M369.321,254.05
				c-0.004,1.94-0.008,3.88-0.012,5.82"/>
			<path style="fill:none;stroke:#000000;stroke-width:0.5;stroke-miterlimit:10;" d="M325.242,266.995
				c0.066,2.938,0.132,5.875,0.197,8.812"/>
			<path style="fill:none;stroke:#000000;stroke-width:0.5;stroke-miterlimit:10;" d="M325.518,277.861
				c0.028,1.454,0.056,2.909,0.084,4.364"/>
			<path style="fill:none;stroke:#000000;stroke-width:0.5;stroke-miterlimit:10;" d="M326.911,273.161
				c0.028,1.455,0.056,2.909,0.084,4.364"/>
			<path style="fill:none;stroke:#000000;stroke-width:0.5;stroke-miterlimit:10;" d="M303.884,229.479
				c-1.001,2.916,0.479,5.571,1.175,6.789"/>
			<path style="fill:none;stroke:#000000;stroke-width:0.5;stroke-miterlimit:10;" d="M348.182,233.285
				c0.255,0.713,0.636,1.381,1.119,1.964"/>
			<path style="fill:none;stroke:#000000;stroke-width:0.5;stroke-miterlimit:10;" d="M335.888,238.831
				c0.445,0.712,1.094,1.295,1.849,1.661"/>
			<path style="fill:none;stroke:#000000;stroke-width:0.5;stroke-miterlimit:10;" d="M352.084,238.796
				c-3.371,2.641-7.902,3.742-12.109,2.942"/>
			<path style="fill:none;stroke:#000000;stroke-width:0.5;stroke-miterlimit:10;" d="M383.001,215.901
				c1.567,2.089,4.961,7.05,5.483,9.008"/>
			<path style="fill:none;stroke:#000000;stroke-width:0.5;stroke-miterlimit:10;" d="M371.991,197.971
				c-2.159,2.111-7.32,5.215-9.574,7.224"/>
			<path style="fill:none;stroke:#000000;stroke-width:0.5;stroke-miterlimit:10;" d="M307.135,200.638
				c1.849,0.776,3.805,1.294,5.795,1.535"/>
			<path style="fill:none;stroke:#000000;stroke-width:0.5;stroke-miterlimit:10;" d="M314.133,202.224c0.77,0,1.54,0,2.31,0"/>
			<path d="M352.918,303.36c1.459,1.459,3.846,1.892,5.724,1.038c0.688-0.313,1.351-0.789,2.106-0.769
				c0.914,0.025,1.728,0.786,2.634,0.664c0.663-0.089,1.165-0.625,1.755-0.941c1.097-0.589,1.973-0.189,3.015,0.209
				c0.841,0.321,1.945,0.51,2.841,0.458c1.633-0.096,3.102-1.457,3.322-3.077"/>
			<path style="fill:none;stroke:#000000;stroke-width:0.5;stroke-miterlimit:10;" d="M355.949,343.6
				c0.585,2.21,1.169,4.42,1.754,6.631"/>
			<path style="fill:none;stroke:#000000;stroke-width:0.5;stroke-miterlimit:10;" d="M388.971,391.405
				c0.335,1.204,0.671,2.408,1.006,3.612"/>
			<path style="fill:none;stroke:#000000;stroke-width:0.5;stroke-miterlimit:10;" d="M387.462,385.986
				c0.279,1.003,0.559,2.007,0.838,3.01"/>
			<path style="fill:none;stroke:#000000;stroke-width:0.5;stroke-miterlimit:10;" d="M305.577,237.316
				c0.523,0.536,1.045,1.073,1.568,1.609"/>
			<path style="fill:none;stroke:#000000;stroke-width:0.5;stroke-miterlimit:10;" d="M389.517,228.285
				c0.377,1.023,0.51,2.134,0.387,3.216"/>
			<path style="fill:none;stroke:#000000;stroke-width:0.5;stroke-miterlimit:10;" d="M333.004,305.949
				c-0.979,5.018-3.811,8.423-9.016,9.166"/>
			<path style="fill:none;stroke:#000000;stroke-width:0.5;stroke-miterlimit:10;" d="M364.475,306.628
				c0.975,1.529,2.059,3.036,3.532,4.094c2.61,1.873,6.039,2.076,9.251,1.988"/>
		</g>
		<g>
			<path style="fill:#9CABFC;" d="M217.253,166.021h-6.589v-36.056l-6.472,3.25v-8.578l12.456-7.405h0.605V166.021z"/>
		</g>
		<g>
			
				<rect x="177.752" y="264.239" style="fill:#D1D8FF;stroke:#000000;stroke-width:0.5;stroke-miterlimit:10;" width="73.475" height="73.475"/>
			<g>
				<path style="fill:#9CABFC;" d="M223.677,290.769c0,2.368-0.341,4.456-1.023,6.266c-0.682,1.81-1.621,3.262-2.816,4.356
					c1.351,1.14,2.423,2.697,3.216,4.675c0.793,1.977,1.189,4.317,1.189,7.02c0,4.356-0.874,7.797-2.622,10.321
					c-1.748,2.524-4.156,3.786-7.222,3.786c-3.08,0-5.51-1.268-7.29-3.803c-1.781-2.535-2.671-5.97-2.671-10.305
					c0-2.613,0.39-4.926,1.17-6.936c0.78-2.011,1.884-3.597,3.313-4.759c-1.208-1.095-2.157-2.547-2.846-4.356
					c-0.689-1.81-1.033-3.898-1.033-6.266c0-4.244,0.838-7.596,2.515-10.053c1.676-2.457,3.938-3.686,6.784-3.686
					c2.871,0,5.146,1.229,6.822,3.686C222.839,283.173,223.677,286.524,223.677,290.769z M217.653,312.181
					c0-2.011-0.302-3.558-0.906-4.641c-0.604-1.084-1.4-1.626-2.388-1.626c-0.988,0-1.787,0.542-2.398,1.626
					c-0.611,1.083-0.916,2.63-0.916,4.641c0,1.943,0.309,3.479,0.926,4.607c0.617,1.128,1.426,1.692,2.427,1.692
					c0.975,0,1.761-0.559,2.358-1.676C217.354,315.689,217.653,314.147,217.653,312.181z M214.34,285.742
					c-0.884,0-1.557,0.497-2.018,1.491c-0.462,0.994-0.692,2.374-0.692,4.138c0,1.743,0.234,3.15,0.702,4.223
					c0.468,1.072,1.156,1.608,2.066,1.608c0.896,0,1.569-0.536,2.017-1.608c0.449-1.072,0.673-2.48,0.673-4.223
					c0-1.742-0.231-3.116-0.692-4.121C215.934,286.244,215.249,285.742,214.34,285.742z"/>
			</g>
			
				<line style="fill:none;stroke:#000000;stroke-width:0.5;stroke-miterlimit:10;" x1="248.658" y1="298.008" x2="248.658" y2="309.345"/>
			
				<line style="fill:none;stroke:#000000;stroke-width:0.5;stroke-miterlimit:10;" x1="248.527" y1="290.828" x2="248.527" y2="293.569"/>
		</g>
		
			<rect x="76.844" y="81.72" style="fill:#D89CC7;stroke:#000000;stroke-width:0.5;stroke-miterlimit:10;" width="84.567" height="81.765"/>
		<g>
			<circle style="fill:#FFFFFF;stroke:#000000;stroke-width:0.5;stroke-miterlimit:10;" cx="277.452" cy="97.023" r="33.474"/>
			<g>
				<line style="fill:#FFFFFF;stroke:#000000;stroke-miterlimit:10;" x1="277.376" y1="63.775" x2="277.376" y2="70.23"/>
				<line style="fill:#FFFFFF;stroke:#000000;stroke-miterlimit:10;" x1="277.376" y1="123.691" x2="277.376" y2="130.147"/>
			</g>
			<g>
				<line style="fill:#FFFFFF;stroke:#000000;stroke-miterlimit:10;" x1="244.19" y1="96.961" x2="250.646" y2="96.961"/>
				<line style="fill:#FFFFFF;stroke:#000000;stroke-miterlimit:10;" x1="304.107" y1="96.961" x2="310.563" y2="96.961"/>
			</g>
			<g>
				<line style="fill:#FFFFFF;stroke:#000000;stroke-miterlimit:10;" x1="248.32" y1="80.927" x2="253.973" y2="84.046"/>
				<line style="fill:#FFFFFF;stroke:#000000;stroke-miterlimit:10;" x1="300.78" y1="109.876" x2="306.432" y2="112.995"/>
			</g>
			<g>
				<line style="fill:#FFFFFF;stroke:#000000;stroke-miterlimit:10;" x1="261.343" y1="126.017" x2="264.462" y2="120.365"/>
				<line style="fill:#FFFFFF;stroke:#000000;stroke-miterlimit:10;" x1="290.291" y1="73.557" x2="293.41" y2="67.905"/>
			</g>
			<g>
				<line style="fill:#FFFFFF;stroke:#000000;stroke-miterlimit:10;" x1="258.863" y1="69.419" x2="262.464" y2="74.776"/>
				<line style="fill:#FFFFFF;stroke:#000000;stroke-miterlimit:10;" x1="292.289" y1="119.145" x2="295.89" y2="124.503"/>
			</g>
			<g>
				<line style="fill:#FFFFFF;stroke:#000000;stroke-miterlimit:10;" x1="249.834" y1="115.475" x2="255.192" y2="111.873"/>
				<line style="fill:#FFFFFF;stroke:#000000;stroke-miterlimit:10;" x1="299.561" y1="82.049" x2="304.919" y2="78.447"/>
			</g>
			<circle cx="277.452" cy="97.023" r="3.967"/>
			<path style="fill:none;stroke:#000000;stroke-width:2;stroke-linecap:round;stroke-miterlimit:10;" d="M276.414,74.735
				l1.037,22.288c0.765-1.339,12.252-8.998,12.252-8.998"/>
			<circle style="fill:none;stroke:#000000;stroke-width:0.5;stroke-miterlimit:10;" cx="277.452" cy="97.023" r="36.542"/>
		</g>
		<g>
			<g>
				<path style="fill:#95CFB6;stroke:#000000;stroke-width:0.5;stroke-miterlimit:10;" d="M423.199,304.238H393.51
					c0.121-8.097,6.718-14.625,14.844-14.625C416.48,289.613,423.078,296.141,423.199,304.238z"/>
				<path d="M417.139,304.134H399.57c0.072-4.791,3.976-8.654,8.784-8.654C413.163,295.479,417.067,299.342,417.139,304.134z"/>
			</g>
			<g>
				<path style="fill:#95CFB6;stroke:#000000;stroke-width:0.5;stroke-miterlimit:10;" d="M423.259,289.468H393.57
					c0.121-8.097,6.718-14.625,14.844-14.625C416.54,274.843,423.138,281.371,423.259,289.468z"/>
				<path d="M417.198,289.364H399.63c0.072-4.791,3.976-8.654,8.784-8.654C413.223,280.709,417.127,284.572,417.198,289.364z"/>
			</g>
		</g>
		<g>
			<path style="fill:#5F76E8;stroke:#000000;stroke-width:0.5;stroke-miterlimit:10;" d="M234.035,89.945h-32.9
				c0.134-8.973,7.445-16.207,16.45-16.207C226.59,73.738,233.902,80.972,234.035,89.945z"/>
			<path d="M227.32,89.829h-19.469c0.079-5.31,4.406-9.591,9.734-9.591S227.24,84.52,227.32,89.829z"/>
		</g>
		<g>
			<path d="M387.069,123.227L387.069,123.227c0.791,0.729,0.842,1.961,0.113,2.752l-21.742,23.61
				c-0.729,0.791-1.961,0.842-2.752,0.113h0c-0.791-0.729-0.842-1.96-0.113-2.751l21.743-23.611
				C385.046,122.549,386.278,122.498,387.069,123.227z"/>
			<g>
				<defs>
					<path id="SVGID_00000111908741791472121800000004722239272695616674_" d="M381.823,132.2l-3.205-2.911
						c-1.172-1.064-1.259-2.877-0.195-4.049l1.752-1.929l7.449,6.766l-1.752,1.929C384.808,133.178,382.995,133.265,381.823,132.2z"
						/>
				</defs>
				<clipPath id="SVGID_00000119810180922357668240000000344007472114784436_">
					<use xlink:href="#SVGID_00000111908741791472121800000004722239272695616674_"  style="overflow:visible;"/>
				</clipPath>
				<g style="clip-path:url(#SVGID_00000119810180922357668240000000344007472114784436_);">
					
						<rect x="377.986" y="125.983" transform="matrix(0.7402 0.6724 -0.6724 0.7402 185.8074 -223.4505)" width="8.148" height="5.473"/>
				</g>
			</g>
			<path d="M406.87,112.798c2.214,8.032-2.502,16.337-10.534,18.551c-8.032,2.214-16.337-2.502-18.551-10.534
				c-2.214-8.031,2.502-16.337,10.534-18.551C396.35,100.05,404.656,104.766,406.87,112.798z"/>
			<path style="fill:#5F76E8;stroke:#000000;stroke-width:0.5;stroke-miterlimit:10;" d="M404.108,113.559
				c1.793,6.506-2.027,13.235-8.534,15.028c-6.506,1.794-13.235-2.027-15.028-8.534s2.027-13.235,8.534-15.028
				C395.586,103.232,402.315,107.052,404.108,113.559z"/>
			<path d="M394.761,125.637c-4.869,1.342-9.923-1.527-11.265-6.397l0.318-0.088c1.294,4.694,6.165,7.46,10.859,6.166
				L394.761,125.637z"/>
			<path style="fill:#D47172;stroke:#000000;stroke-width:0.5;stroke-miterlimit:10;" d="M396.38,125.01
				c0.883-0.298,1.719-0.734,2.47-1.286"/>
		</g>
		<g>
			
				<rect x="62.466" y="93.272" style="fill:#FFFFFF;stroke:#000000;stroke-width:0.5;stroke-miterlimit:10;" width="84.567" height="81.765"/>
			<g>
				<g>
					<g>
						<path style="fill:#95CFB6;stroke:#000000;stroke-width:0.5;stroke-miterlimit:10;" d="M103.307,149.167
							c-14.091,0-25.515-12.741-25.515-12.741s11.423-12.741,25.515-12.741c14.091,0,25.515,12.741,25.515,12.741
							S117.399,149.167,103.307,149.167z"/>
						
							<ellipse transform="matrix(0.1222 -0.9925 0.9925 0.1222 -44.8137 222.2144)" cx="103.217" cy="136.442" rx="12.817" ry="12.817"/>
					</g>
					
						<line style="fill:none;stroke:#222221;stroke-width:0.5;stroke-miterlimit:10;" x1="75.66" y1="116.204" x2="82.654" y2="123.198"/>
					
						<line style="fill:none;stroke:#222221;stroke-width:0.5;stroke-miterlimit:10;" x1="88.817" y1="109.39" x2="91.686" y2="117.28"/>
					
						<line style="fill:none;stroke:#222221;stroke-width:0.5;stroke-miterlimit:10;" x1="100.944" y1="106.521" x2="100.944" y2="114.053"/>
					
						<line style="fill:none;stroke:#222221;stroke-width:0.5;stroke-miterlimit:10;" x1="114.697" y1="108.502" x2="111.411" y2="115.226"/>
					
						<line style="fill:none;stroke:#222221;stroke-width:0.5;stroke-miterlimit:10;" x1="126.213" y1="112.926" x2="121.371" y2="119.382"/>
					
						<line style="fill:none;stroke:#222221;stroke-width:0.5;stroke-miterlimit:10;" x1="127.635" y1="126.608" x2="135.525" y2="120.511"/>
					<path style="fill:none;stroke:#222221;stroke-width:0.5;stroke-miterlimit:10;" d="M115.033,148.779
						c-3.863,1.479-6.103,1.849-8.813,2.154"/>
				</g>
				<path style="fill:none;stroke:#222221;stroke-width:0.5;stroke-miterlimit:10;" d="M116.738,147.945
					c1.324-0.79,2.647-1.579,3.971-2.368"/>
			</g>
		</g>
		<g>
			<g>
				<rect x="393.079" y="161.838" width="57.5" height="36.189"/>
				
					<rect x="386.488" y="156.587" style="fill:#D89CC7;stroke:#000000;stroke-width:0.5;stroke-miterlimit:10;" width="57.5" height="36.189"/>
				<path style="fill:none;stroke:#000000;stroke-width:0.5;stroke-miterlimit:10;" d="M443.987,156.587
					c0,0-26.653,16.383-28.75,18.094l-28.75-18.094"/>
			</g>
			<path style="fill:none;stroke:#000000;stroke-width:0.5;stroke-miterlimit:10;" d="M441.404,179.006
				c0.257,3.035,0.266,6.09,0.026,9.127"/>
			<path style="fill:none;stroke:#000000;stroke-width:0.5;stroke-miterlimit:10;" d="M441.309,177.204
				c0.042-1.121,0.084-2.242,0.126-3.362"/>
			<path style="fill:none;stroke:#000000;stroke-width:0.5;stroke-miterlimit:10;" d="M439.736,176.483c0,0.801,0,1.601,0,2.402"/>
			<path style="fill:none;stroke:#000000;stroke-width:0.5;stroke-miterlimit:10;" d="M416.198,171.799c0,0,4.047-2.556,5.404-3.483
				"/>
			<path style="fill:none;stroke:#000000;stroke-width:0.5;stroke-miterlimit:10;" d="M423.262,167.088
				c0.57-0.445,1.183-0.835,1.827-1.165"/>
		</g>
		<g>
			<polyline style="fill:none;stroke:#1B2258;stroke-width:0.75;stroke-miterlimit:10;" points="165.703,380.679 180.066,397.813 
				197.448,373.464 210.434,392.8 231.751,354.608 249.398,394.411 			"/>
			<path style="fill:#95CFB6;stroke:#000000;stroke-width:0.5;stroke-miterlimit:10;" d="M242.513,394.411
				c0,3.802,3.083,6.885,6.885,6.885c3.802,0,6.885-3.083,6.885-6.885c0-3.802-3.083-6.885-6.885-6.885
				C245.595,387.526,242.513,390.608,242.513,394.411z"/>
			<path style="fill:#95CFB6;stroke:#000000;stroke-width:0.5;stroke-miterlimit:10;" d="M202.931,373.464
				c0,3.028-2.455,5.483-5.483,5.483c-3.028,0-5.483-2.455-5.483-5.483c0-3.028,2.455-5.483,5.483-5.483
				C200.476,367.981,202.931,370.436,202.931,373.464z"/>
			<path style="fill:#95CFB6;stroke:#000000;stroke-width:0.5;stroke-miterlimit:10;" d="M170.629,381.243
				c0,2.472-2.004,4.477-4.477,4.477s-4.477-2.004-4.477-4.477c0-2.473,2.004-4.477,4.477-4.477S170.629,378.77,170.629,381.243z"/>
			<path style="fill:#95CFB6;stroke:#000000;stroke-width:0.5;stroke-miterlimit:10;" d="M226.522,354.096
				c0,2.964,2.403,5.367,5.367,5.367c2.964,0,5.367-2.403,5.367-5.367c0-2.964-2.403-5.367-5.367-5.367
				C228.925,348.729,226.522,351.132,226.522,354.096z"/>
			<path style="fill:#95CFB6;stroke:#000000;stroke-width:0.5;stroke-miterlimit:10;" d="M205.916,393.872
				c0-2.633,2.135-4.768,4.768-4.768c2.633,0,4.768,2.135,4.768,4.768c0,2.634-2.135,4.768-4.768,4.768
				C208.051,398.641,205.916,396.506,205.916,393.872z"/>
			<path style="fill:#95CFB6;stroke:#000000;stroke-width:0.5;stroke-miterlimit:10;" d="M174.952,396.564
				c0-2.771,2.247-5.018,5.018-5.018c2.771,0,5.018,2.246,5.018,5.018c0,2.771-2.247,5.018-5.018,5.018
				C177.198,401.582,174.952,399.336,174.952,396.564z"/>
			<path style="fill:none;stroke:#000000;stroke-width:0.5;stroke-miterlimit:10;" d="M254.583,393.001
				c0.423,1.535,0.143,3.248-0.746,4.569"/>
			<path style="fill:none;stroke:#000000;stroke-width:0.5;stroke-miterlimit:10;" d="M252.348,398.641
				c-0.239,0.344-0.565,0.627-0.939,0.815"/>
			<path style="fill:none;stroke:#000000;stroke-width:0.5;stroke-miterlimit:10;" d="M213.999,393.527
				c-0.167,1.241-0.813,2.411-1.774,3.214"/>
			<path style="fill:none;stroke:#000000;stroke-width:0.5;stroke-miterlimit:10;" d="M178.851,400.277
				c0.663,0.197,1.399,0.137,2.022-0.164"/>
			<path style="fill:none;stroke:#000000;stroke-width:0.5;stroke-miterlimit:10;" d="M181.775,399.643
				c0.759-0.213,1.312-0.898,1.575-1.641c0.263-0.743,0.283-1.547,0.3-2.335"/>
			<path style="fill:none;stroke:#000000;stroke-width:0.5;stroke-miterlimit:10;" d="M201.626,374.128
				c-0.123,0.882-0.564,1.716-1.223,2.315"/>
		</g>
		<g>
			<polygon points="76.429,217.844 61.515,222.641 63.184,215.549 			"/>
			<g>
				<defs>
					<polygon id="SVGID_00000115501593837414484450000001476970336490210441_" points="55.097,205.367 95.697,204.905 
						75.941,231.946 64.684,216.906 61.515,222.641 60.279,211.274 					"/>
				</defs>
				<use xlink:href="#SVGID_00000115501593837414484450000001476970336490210441_"  style="overflow:visible;fill:#D89CC7;"/>
				<clipPath id="SVGID_00000154427187232992314110000018036286199035747995_">
					<use xlink:href="#SVGID_00000115501593837414484450000001476970336490210441_"  style="overflow:visible;"/>
				</clipPath>
				<polygon style="clip-path:url(#SVGID_00000154427187232992314110000018036286199035747995_);" points="89.047,208.078 
					64.684,216.906 61.282,227.338 55.4,221.765 60.279,211.274 				"/>
				
					<use xlink:href="#SVGID_00000115501593837414484450000001476970336490210441_"  style="overflow:visible;fill:none;stroke:#000000;stroke-width:0.5;stroke-miterlimit:10;"/>
			</g>
			<path style="fill:none;stroke:#000000;stroke-width:0.5;stroke-miterlimit:10;" d="M87.765,213.244
				c-1.581,2.082-3.161,4.165-4.742,6.247"/>
			<path style="fill:none;stroke:#000000;stroke-width:0.5;stroke-miterlimit:10;" d="M81.501,221.268
				c-0.802,0.817-1.462,1.774-1.939,2.815"/>
			<path style="fill:none;stroke:#000000;stroke-width:0.5;stroke-miterlimit:10;" d="M82.476,217.844
				c-0.367,0.489-0.733,0.977-1.099,1.466"/>
		</g>
		<g>
			<path d="M161.28,132.157c-2.449,0.274-4.361,2.328-4.361,4.851s1.911,4.576,4.361,4.851V132.157z"/>
			<path d="M161.28,141.015c-2.449,0.274-4.361,2.328-4.361,4.851c0,2.523,1.911,4.576,4.361,4.851V141.015z"/>
			<path d="M161.28,149.873c-2.449,0.274-4.361,2.328-4.361,4.851c0,2.523,1.911,4.576,4.361,4.851V149.873z"/>
		</g>
		<g>
			<path d="M443.188,231.726c-2.449,0.274-4.361,2.328-4.361,4.851c0,2.523,1.911,4.576,4.361,4.851V231.726z"/>
			<path d="M443.188,240.583c-2.449,0.274-4.361,2.328-4.361,4.851c0,2.523,1.911,4.576,4.361,4.851V240.583z"/>
			<path d="M443.188,249.441c-2.449,0.274-4.361,2.328-4.361,4.851s1.911,4.576,4.361,4.851V249.441z"/>
		</g>
		
			<line style="fill:none;stroke:#000000;stroke-width:0.5;stroke-miterlimit:10;" x1="420.558" y1="217.411" x2="403.962" y2="234.008"/>
		
			<line style="fill:none;stroke:#000000;stroke-width:0.5;stroke-miterlimit:10;" x1="417.773" y1="224.026" x2="401.177" y2="240.623"/>
		<polyline style="fill:none;stroke:#000000;stroke-width:0.5;stroke-miterlimit:10;" points="267.98,294.201 264.24,297.941 
			267.63,301.331 263.89,305.071 267.513,308.694 263.89,312.318 267.162,315.59 		"/>
		<path style="fill:none;stroke:#000000;stroke-width:0.5;stroke-miterlimit:10;" d="M164.82,284.953
			c1.575,0,2.852,1.277,2.852,2.852c0,1.575-1.277,2.852-2.852,2.852"/>
		<circle style="fill:none;stroke:#000000;stroke-width:0.5;stroke-miterlimit:10;" cx="77.628" cy="324.12" r="1.828"/>
		<path style="fill:none;stroke:#000000;stroke-width:0.5;stroke-miterlimit:10;" d="M413.421,343.965
			c0-2.067,1.676-3.743,3.743-3.743c2.067,0,3.743,1.676,3.743,3.743"/>
		<circle style="fill:none;stroke:#000000;stroke-width:0.5;stroke-miterlimit:10;" cx="416.125" cy="347.887" r="1.685"/>
	</g>
</g>
</svg>
